<svg width="300" height="300" viewBox="0 0 300 300" fill="none" xmlns="http://www.w3.org/2000/svg">
<path d="M133.75 9.95929C143.806 4.15372 156.194 4.15373 166.25 9.95929L263.154 65.9067C273.209 71.7123 279.404 82.4414 279.404 94.0526V205.947C279.404 217.559 273.209 228.288 263.154 234.093L166.25 290.041C156.194 295.846 143.806 295.846 133.75 290.041L36.8462 234.093C26.7907 228.288 20.5962 217.559 20.5962 205.947V94.0526C20.5962 82.4414 26.7907 71.7123 36.8462 65.9067L133.75 9.95929Z" fill="url(#paint0_linear_452_109)" stroke="#278BD3"/>
<path d="M133.75 59.9593C143.806 54.1537 156.194 54.1537 166.25 59.9593L241.503 103.407C251.559 109.212 257.753 119.941 257.753 131.553V218.447C257.753 230.059 251.559 240.788 241.503 246.593L166.25 290.041C156.194 295.846 143.806 295.846 133.75 290.041L58.4968 246.593C48.4413 240.788 42.2468 230.059 42.2468 218.447V131.553C42.2468 119.941 48.4413 109.212 58.4968 103.407L133.75 59.9593Z" fill="url(#paint1_linear_452_109)" stroke="#1BF6E9"/>
<path d="M133.75 109.959C143.806 104.154 156.194 104.154 166.25 109.959L219.853 140.907C229.908 146.712 236.103 157.441 236.103 169.053V230.947C236.103 242.559 229.908 253.288 219.853 259.093L166.25 290.041C156.194 295.846 143.806 295.846 133.75 290.041L80.1475 259.093C70.0919 253.288 63.8975 242.559 63.8975 230.947V169.053C63.8975 157.441 70.0919 146.712 80.1475 140.907L133.75 109.959Z" fill="url(#paint2_linear_452_109)" stroke="#6FF0F6"/>
<mask id="path-4-inside-1_452_109" fill="white">
<path fill-rule="evenodd" clip-rule="evenodd" d="M96 269.012V177.452L279.904 96V206.137C279.904 217.926 273.614 228.821 263.404 234.715L166.5 290.663C156.29 296.558 143.71 296.558 133.5 290.663L96 269.012Z"/>
</mask>
<path fill-rule="evenodd" clip-rule="evenodd" d="M96 269.012V177.452L279.904 96V206.137C279.904 217.926 273.614 228.821 263.404 234.715L166.5 290.663C156.29 296.558 143.71 296.558 133.5 290.663L96 269.012Z" fill="url(#paint3_linear_452_109)"/>
<path d="M96 177.452L95.595 176.538L95 176.801V177.452H96ZM96 269.012H95V269.59L95.5 269.878L96 269.012ZM279.904 96H280.904V94.4634L279.499 95.0857L279.904 96ZM263.404 234.715L262.904 233.849L263.404 234.715ZM166.5 290.663L166 289.797L166.5 290.663ZM133.5 290.663L134 289.797L133.5 290.663ZM95 177.452V269.012H97V177.452H95ZM279.499 95.0857L95.595 176.538L96.405 178.366L280.309 96.9143L279.499 95.0857ZM278.904 96V206.137H280.904V96H278.904ZM278.904 206.137C278.904 217.569 272.805 228.133 262.904 233.849L263.904 235.581C274.423 229.508 280.904 218.284 280.904 206.137H278.904ZM262.904 233.849L166 289.797L167 291.529L263.904 235.581L262.904 233.849ZM166 289.797C156.099 295.513 143.901 295.513 134 289.797L133 291.529C143.52 297.602 156.48 297.602 167 291.529L166 289.797ZM134 289.797L96.5 268.146L95.5 269.878L133 291.529L134 289.797Z" fill="#61FFFF" mask="url(#path-4-inside-1_452_109)"/>
<g filter="url(#filter0_d_452_109)">
<path d="M180.89 187.03V175.9H200.28V227H187.82V187.03H180.89ZM208.468 200.75C208.468 192.723 210.008 186.4 213.088 181.78C216.215 177.16 221.232 174.85 228.138 174.85C235.045 174.85 240.038 177.16 243.118 181.78C246.245 186.4 247.808 192.723 247.808 200.75C247.808 208.87 246.245 215.24 243.118 219.86C240.038 224.48 235.045 226.79 228.138 226.79C221.232 226.79 216.215 224.48 213.088 219.86C210.008 215.24 208.468 208.87 208.468 200.75ZM236.048 200.75C236.048 196.037 235.535 192.42 234.508 189.9C233.482 187.333 231.358 186.05 228.138 186.05C224.918 186.05 222.795 187.333 221.768 189.9C220.742 192.42 220.228 196.037 220.228 200.75C220.228 203.923 220.415 206.56 220.788 208.66C221.162 210.713 221.908 212.393 223.028 213.7C224.195 214.96 225.898 215.59 228.138 215.59C230.378 215.59 232.058 214.96 233.178 213.7C234.345 212.393 235.115 210.713 235.488 208.66C235.862 206.56 236.048 203.923 236.048 200.75Z" fill="white"/>
</g>
<defs>
<filter id="filter0_d_452_109" x="172.89" y="170.85" width="82.9189" height="68.1499" filterUnits="userSpaceOnUse" color-interpolation-filters="sRGB">
<feFlood flood-opacity="0" result="BackgroundImageFix"/>
<feColorMatrix in="SourceAlpha" type="matrix" values="0 0 0 0 0 0 0 0 0 0 0 0 0 0 0 0 0 0 127 0" result="hardAlpha"/>
<feOffset dy="4"/>
<feGaussianBlur stdDeviation="4"/>
<feComposite in2="hardAlpha" operator="out"/>
<feColorMatrix type="matrix" values="0 0 0 0 0 0 0 0 0 0 0 0 0 0 0 0 0 0 0.49 0"/>
<feBlend mode="normal" in2="BackgroundImageFix" result="effect1_dropShadow_452_109"/>
<feBlend mode="normal" in="SourceGraphic" in2="effect1_dropShadow_452_109" result="shape"/>
</filter>
<linearGradient id="paint0_linear_452_109" x1="150" y1="0" x2="150" y2="300" gradientUnits="userSpaceOnUse">
<stop stop-color="#288DD7"/>
<stop offset="1" stop-color="#013D69"/>
</linearGradient>
<linearGradient id="paint1_linear_452_109" x1="150" y1="50" x2="150" y2="300" gradientUnits="userSpaceOnUse">
<stop stop-color="#1EFFF1"/>
<stop offset="1" stop-color="#007069"/>
</linearGradient>
<linearGradient id="paint2_linear_452_109" x1="150" y1="100" x2="150" y2="300" gradientUnits="userSpaceOnUse">
<stop stop-color="#82F8FF"/>
<stop offset="1" stop-color="#01B4BE" stop-opacity="0"/>
</linearGradient>
<linearGradient id="paint3_linear_452_109" x1="268.5" y1="110.5" x2="147" y2="287.5" gradientUnits="userSpaceOnUse">
<stop stop-color="#61FFFF"/>
<stop offset="1" stop-color="#049898"/>
</linearGradient>
</defs>
</svg>
