<svg width="300" height="300" viewBox="0 0 300 300" fill="none" xmlns="http://www.w3.org/2000/svg">
<path d="M133.75 9.95929C143.806 4.15372 156.194 4.15373 166.25 9.95929L263.154 65.9067C273.209 71.7123 279.404 82.4414 279.404 94.0526V205.947C279.404 217.559 273.209 228.288 263.154 234.093L166.25 290.041C156.194 295.846 143.806 295.846 133.75 290.041L36.8462 234.093C26.7907 228.288 20.5962 217.559 20.5962 205.947V94.0526C20.5962 82.4414 26.7907 71.7123 36.8462 65.9067L133.75 9.95929Z" fill="url(#paint0_linear_452_57)" stroke="#B801FA"/>
<path d="M133.75 59.9593C143.806 54.1537 156.194 54.1537 166.25 59.9593L241.503 103.407C251.559 109.212 257.753 119.941 257.753 131.553V218.447C257.753 230.059 251.559 240.788 241.503 246.593L166.25 290.041C156.194 295.846 143.806 295.846 133.75 290.041L58.4968 246.593C48.4413 240.788 42.2468 230.059 42.2468 218.447V131.553C42.2468 119.941 48.4413 109.212 58.4968 103.407L133.75 59.9593Z" fill="url(#paint1_linear_452_57)" stroke="#9A1CFD"/>
<path d="M133.75 109.959C143.806 104.154 156.194 104.154 166.25 109.959L219.853 140.907C229.908 146.712 236.103 157.441 236.103 169.053V230.947C236.103 242.559 229.908 253.288 219.853 259.093L166.25 290.041C156.194 295.846 143.806 295.846 133.75 290.041L80.1475 259.093C70.0919 253.288 63.8975 242.559 63.8975 230.947V169.053C63.8975 157.441 70.0919 146.712 80.1475 140.907L133.75 109.959Z" fill="url(#paint2_linear_452_57)" stroke="#CF6DFD"/>
<mask id="path-4-inside-1_452_57" fill="white">
<path fill-rule="evenodd" clip-rule="evenodd" d="M96 269.012V177.452L279.904 96V206.137C279.904 217.926 273.614 228.821 263.404 234.715L166.5 290.663C156.29 296.558 143.71 296.558 133.5 290.663L96 269.012Z"/>
</mask>
<path fill-rule="evenodd" clip-rule="evenodd" d="M96 269.012V177.452L279.904 96V206.137C279.904 217.926 273.614 228.821 263.404 234.715L166.5 290.663C156.29 296.558 143.71 296.558 133.5 290.663L96 269.012Z" fill="url(#paint3_linear_452_57)"/>
<path d="M96 177.452L95.595 176.538L95 176.801V177.452H96ZM96 269.012H95V269.59L95.5 269.878L96 269.012ZM279.904 96H280.904V94.4634L279.499 95.0857L279.904 96ZM263.404 234.715L262.904 233.849L263.404 234.715ZM166.5 290.663L166 289.797L166.5 290.663ZM133.5 290.663L134 289.797L133.5 290.663ZM95 177.452V269.012H97V177.452H95ZM279.499 95.0857L95.595 176.538L96.405 178.366L280.309 96.9143L279.499 95.0857ZM278.904 96V206.137H280.904V96H278.904ZM278.904 206.137C278.904 217.569 272.805 228.133 262.904 233.849L263.904 235.581C274.423 229.508 280.904 218.284 280.904 206.137H278.904ZM262.904 233.849L166 289.797L167 291.529L263.904 235.581L262.904 233.849ZM166 289.797C156.099 295.513 143.901 295.513 134 289.797L133 291.529C143.52 297.602 156.48 297.602 167 291.529L166 289.797ZM134 289.797L96.5 268.146L95.5 269.878L133 291.529L134 289.797Z" fill="#C956FF" mask="url(#path-4-inside-1_452_57)"/>
<g filter="url(#filter0_d_452_57)">
<path d="M182.57 190.32C182.757 185.327 184.39 181.477 187.47 178.77C190.55 176.063 194.727 174.71 200 174.71C203.5 174.71 206.487 175.317 208.96 176.53C211.48 177.743 213.37 179.4 214.63 181.5C215.937 183.6 216.59 185.957 216.59 188.57C216.59 191.65 215.82 194.17 214.28 196.13C212.74 198.043 210.943 199.35 208.89 200.05V200.33C211.55 201.217 213.65 202.687 215.19 204.74C216.73 206.793 217.5 209.43 217.5 212.65C217.5 215.543 216.823 218.11 215.47 220.35C214.163 222.543 212.227 224.27 209.66 225.53C207.14 226.79 204.13 227.42 200.63 227.42C195.03 227.42 190.55 226.043 187.19 223.29C183.877 220.537 182.127 216.383 181.94 210.83H193.56C193.607 212.883 194.19 214.517 195.31 215.73C196.43 216.897 198.063 217.48 200.21 217.48C202.03 217.48 203.43 216.967 204.41 215.94C205.437 214.867 205.95 213.467 205.95 211.74C205.95 209.5 205.227 207.89 203.78 206.91C202.38 205.883 200.117 205.37 196.99 205.37H194.75V195.64H196.99C199.37 195.64 201.283 195.243 202.73 194.45C204.223 193.61 204.97 192.14 204.97 190.04C204.97 188.36 204.503 187.053 203.57 186.12C202.637 185.187 201.353 184.72 199.72 184.72C197.947 184.72 196.617 185.257 195.73 186.33C194.89 187.403 194.4 188.733 194.26 190.32H182.57Z" fill="white"/>
</g>
<defs>
<filter id="filter0_d_452_57" x="173.94" y="170.71" width="51.5596" height="68.71" filterUnits="userSpaceOnUse" color-interpolation-filters="sRGB">
<feFlood flood-opacity="0" result="BackgroundImageFix"/>
<feColorMatrix in="SourceAlpha" type="matrix" values="0 0 0 0 0 0 0 0 0 0 0 0 0 0 0 0 0 0 127 0" result="hardAlpha"/>
<feOffset dy="4"/>
<feGaussianBlur stdDeviation="4"/>
<feComposite in2="hardAlpha" operator="out"/>
<feColorMatrix type="matrix" values="0 0 0 0 0 0 0 0 0 0 0 0 0 0 0 0 0 0 0.49 0"/>
<feBlend mode="normal" in2="BackgroundImageFix" result="effect1_dropShadow_452_57"/>
<feBlend mode="normal" in="SourceGraphic" in2="effect1_dropShadow_452_57" result="shape"/>
</filter>
<linearGradient id="paint0_linear_452_57" x1="150" y1="0" x2="150" y2="300" gradientUnits="userSpaceOnUse">
<stop stop-color="#BD00FF"/>
<stop offset="1" stop-color="#252347"/>
</linearGradient>
<linearGradient id="paint1_linear_452_57" x1="150" y1="50" x2="150" y2="300" gradientUnits="userSpaceOnUse">
<stop stop-color="#9C1EFF"/>
<stop offset="1" stop-color="#7200CB"/>
</linearGradient>
<linearGradient id="paint2_linear_452_57" x1="150" y1="100" x2="150" y2="300" gradientUnits="userSpaceOnUse">
<stop stop-color="#D274FF"/>
<stop offset="1" stop-color="#8F04D2"/>
</linearGradient>
<linearGradient id="paint3_linear_452_57" x1="268.5" y1="110.5" x2="147" y2="287.5" gradientUnits="userSpaceOnUse">
<stop stop-color="#C956FF"/>
<stop offset="1" stop-color="#8802C7"/>
</linearGradient>
</defs>
</svg>
