<svg width="300" height="300" viewBox="0 0 300 300" fill="none" xmlns="http://www.w3.org/2000/svg">
<path d="M133.75 9.95929C143.806 4.15372 156.194 4.15373 166.25 9.95929L263.154 65.9067C273.209 71.7123 279.404 82.4414 279.404 94.0526V205.947C279.404 217.559 273.209 228.288 263.154 234.093L166.25 290.041C156.194 295.846 143.806 295.846 133.75 290.041L36.8462 234.093C26.7907 228.288 20.5962 217.559 20.5962 205.947V94.0526C20.5962 82.4414 26.7907 71.7123 36.8462 65.9067L133.75 9.95929Z" fill="url(#paint0_linear_452_59)" stroke="#CF151A"/>
<path d="M133.75 59.9593C143.806 54.1537 156.194 54.1537 166.25 59.9593L241.503 103.407C251.559 109.212 257.753 119.941 257.753 131.553V218.447C257.753 230.059 251.559 240.788 241.503 246.593L166.25 290.041C156.194 295.846 143.806 295.846 133.75 290.041L58.4968 246.593C48.4413 240.788 42.2468 230.059 42.2468 218.447V131.553C42.2468 119.941 48.4413 109.212 58.4968 103.407L133.75 59.9593Z" fill="url(#paint1_linear_452_59)" stroke="#F81D85"/>
<path d="M133.75 109.959C143.806 104.154 156.194 104.154 166.25 109.959L219.853 140.907C229.908 146.712 236.103 157.441 236.103 169.053V230.947C236.103 242.559 229.908 253.288 219.853 259.093L166.25 290.041C156.194 295.846 143.806 295.846 133.75 290.041L80.1475 259.093C70.0919 253.288 63.8975 242.559 63.8975 230.947V169.053C63.8975 157.441 70.0919 146.712 80.1475 140.907L133.75 109.959Z" fill="url(#paint2_linear_452_59)" stroke="#FF9F80"/>
<mask id="path-4-inside-1_452_59" fill="white">
<path fill-rule="evenodd" clip-rule="evenodd" d="M96 269.012V177.452L279.904 96V206.137C279.904 217.926 273.614 228.821 263.404 234.715L166.5 290.663C156.29 296.558 143.71 296.558 133.5 290.663L96 269.012Z"/>
</mask>
<path fill-rule="evenodd" clip-rule="evenodd" d="M96 269.012V177.452L279.904 96V206.137C279.904 217.926 273.614 228.821 263.404 234.715L166.5 290.663C156.29 296.558 143.71 296.558 133.5 290.663L96 269.012Z" fill="url(#paint3_linear_452_59)"/>
<path d="M96 177.452L95.595 176.538L95 176.801V177.452H96ZM96 269.012H95V269.59L95.5 269.878L96 269.012ZM279.904 96H280.904V94.4634L279.499 95.0857L279.904 96ZM263.404 234.715L262.904 233.849L263.404 234.715ZM166.5 290.663L166 289.797L166.5 290.663ZM133.5 290.663L134 289.797L133.5 290.663ZM95 177.452V269.012H97V177.452H95ZM279.499 95.0857L95.595 176.538L96.405 178.366L280.309 96.9143L279.499 95.0857ZM278.904 96V206.137H280.904V96H278.904ZM278.904 206.137C278.904 217.569 272.805 228.133 262.904 233.849L263.904 235.581C274.423 229.508 280.904 218.284 280.904 206.137H278.904ZM262.904 233.849L166 289.797L167 291.529L263.904 235.581L262.904 233.849ZM166 289.797C156.099 295.513 143.901 295.513 134 289.797L133 291.529C143.52 297.602 156.48 297.602 167 291.529L166 289.797ZM134 289.797L96.5 268.146L95.5 269.878L133 291.529L134 289.797Z" fill="#FF6164" mask="url(#path-4-inside-1_452_59)"/>
<g filter="url(#filter0_d_452_59)">
<path d="M221.13 186.33H199.29V195.99C200.223 194.963 201.53 194.123 203.21 193.47C204.89 192.817 206.71 192.49 208.67 192.49C212.17 192.49 215.063 193.283 217.35 194.87C219.683 196.457 221.387 198.51 222.46 201.03C223.533 203.55 224.07 206.28 224.07 209.22C224.07 214.68 222.53 219.02 219.45 222.24C216.37 225.413 212.03 227 206.43 227C202.697 227 199.453 226.37 196.7 225.11C193.947 223.803 191.823 222.007 190.33 219.72C188.837 217.433 188.02 214.797 187.88 211.81H199.57C199.85 213.257 200.527 214.47 201.6 215.45C202.673 216.383 204.143 216.85 206.01 216.85C208.203 216.85 209.837 216.15 210.91 214.75C211.983 213.35 212.52 211.483 212.52 209.15C212.52 206.863 211.96 205.113 210.84 203.9C209.72 202.687 208.087 202.08 205.94 202.08C204.353 202.08 203.047 202.477 202.02 203.27C200.993 204.017 200.317 205.02 199.99 206.28H188.44V175.83H221.13V186.33Z" fill="white"/>
</g>
<defs>
<filter id="filter0_d_452_59" x="179.88" y="171.83" width="52.1904" height="67.1699" filterUnits="userSpaceOnUse" color-interpolation-filters="sRGB">
<feFlood flood-opacity="0" result="BackgroundImageFix"/>
<feColorMatrix in="SourceAlpha" type="matrix" values="0 0 0 0 0 0 0 0 0 0 0 0 0 0 0 0 0 0 127 0" result="hardAlpha"/>
<feOffset dy="4"/>
<feGaussianBlur stdDeviation="4"/>
<feComposite in2="hardAlpha" operator="out"/>
<feColorMatrix type="matrix" values="0 0 0 0 0 0 0 0 0 0 0 0 0 0 0 0 0 0 0.49 0"/>
<feBlend mode="normal" in2="BackgroundImageFix" result="effect1_dropShadow_452_59"/>
<feBlend mode="normal" in="SourceGraphic" in2="effect1_dropShadow_452_59" result="shape"/>
</filter>
<linearGradient id="paint0_linear_452_59" x1="150" y1="0" x2="150" y2="300" gradientUnits="userSpaceOnUse">
<stop stop-color="#D1161B"/>
<stop offset="1" stop-color="#601012"/>
</linearGradient>
<linearGradient id="paint1_linear_452_59" x1="150" y1="50" x2="150" y2="300" gradientUnits="userSpaceOnUse">
<stop stop-color="#FF1E8A"/>
<stop offset="1" stop-color="#9B1556" stop-opacity="0"/>
</linearGradient>
<linearGradient id="paint2_linear_452_59" x1="150" y1="100" x2="150" y2="300" gradientUnits="userSpaceOnUse">
<stop stop-color="#FFA582"/>
<stop offset="1" stop-color="#FFA582" stop-opacity="0"/>
</linearGradient>
<linearGradient id="paint3_linear_452_59" x1="268.5" y1="110.5" x2="147" y2="287.5" gradientUnits="userSpaceOnUse">
<stop stop-color="#FF6165"/>
<stop offset="0.867757" stop-color="#C10408"/>
</linearGradient>
</defs>
</svg>
