<svg width="300" height="300" viewBox="0 0 300 300" fill="none" xmlns="http://www.w3.org/2000/svg">
<path d="M133.75 9.95929C143.806 4.15372 156.194 4.15373 166.25 9.95929L263.154 65.9067C273.209 71.7123 279.404 82.4414 279.404 94.0526V205.947C279.404 217.559 273.209 228.288 263.154 234.093L166.25 290.041C156.194 295.846 143.806 295.846 133.75 290.041L36.8462 234.093C26.7907 228.288 20.5962 217.559 20.5962 205.947V94.0526C20.5962 82.4414 26.7907 71.7123 36.8462 65.9067L133.75 9.95929Z" fill="url(#paint0_linear_452_69)" stroke="#278BD3"/>
<path d="M133.75 59.9593C143.806 54.1537 156.194 54.1537 166.25 59.9593L241.503 103.407C251.559 109.212 257.753 119.941 257.753 131.553V218.447C257.753 230.059 251.559 240.788 241.503 246.593L166.25 290.041C156.194 295.846 143.806 295.846 133.75 290.041L58.4968 246.593C48.4413 240.788 42.2468 230.059 42.2468 218.447V131.553C42.2468 119.941 48.4413 109.212 58.4968 103.407L133.75 59.9593Z" fill="url(#paint1_linear_452_69)" stroke="#1BF6E9"/>
<path d="M133.75 109.959C143.806 104.154 156.194 104.154 166.25 109.959L219.853 140.907C229.908 146.712 236.103 157.441 236.103 169.053V230.947C236.103 242.559 229.908 253.288 219.853 259.093L166.25 290.041C156.194 295.846 143.806 295.846 133.75 290.041L80.1475 259.093C70.0919 253.288 63.8975 242.559 63.8975 230.947V169.053C63.8975 157.441 70.0919 146.712 80.1475 140.907L133.75 109.959Z" fill="url(#paint2_linear_452_69)" stroke="#6FF0F6"/>
<mask id="path-4-inside-1_452_69" fill="white">
<path fill-rule="evenodd" clip-rule="evenodd" d="M96 269.012V177.452L279.904 96V206.137C279.904 217.926 273.614 228.821 263.404 234.715L166.5 290.663C156.29 296.558 143.71 296.558 133.5 290.663L96 269.012Z"/>
</mask>
<path fill-rule="evenodd" clip-rule="evenodd" d="M96 269.012V177.452L279.904 96V206.137C279.904 217.926 273.614 228.821 263.404 234.715L166.5 290.663C156.29 296.558 143.71 296.558 133.5 290.663L96 269.012Z" fill="url(#paint3_linear_452_69)"/>
<path d="M96 177.452L95.595 176.538L95 176.801V177.452H96ZM96 269.012H95V269.59L95.5 269.878L96 269.012ZM279.904 96H280.904V94.4634L279.499 95.0857L279.904 96ZM263.404 234.715L262.904 233.849L263.404 234.715ZM166.5 290.663L166 289.797L166.5 290.663ZM133.5 290.663L134 289.797L133.5 290.663ZM95 177.452V269.012H97V177.452H95ZM279.499 95.0857L95.595 176.538L96.405 178.366L280.309 96.9143L279.499 95.0857ZM278.904 96V206.137H280.904V96H278.904ZM278.904 206.137C278.904 217.569 272.805 228.133 262.904 233.849L263.904 235.581C274.423 229.508 280.904 218.284 280.904 206.137H278.904ZM262.904 233.849L166 289.797L167 291.529L263.904 235.581L262.904 233.849ZM166 289.797C156.099 295.513 143.901 295.513 134 289.797L133 291.529C143.52 297.602 156.48 297.602 167 291.529L166 289.797ZM134 289.797L96.5 268.146L95.5 269.878L133 291.529L134 289.797Z" fill="#61FFFF" mask="url(#path-4-inside-1_452_69)"/>
<g filter="url(#filter0_d_452_69)">
<path d="M207.42 189.69C207.047 187.963 206.393 186.68 205.46 185.84C204.527 184.953 203.197 184.51 201.47 184.51C198.81 184.51 196.897 185.677 195.73 188.01C194.563 190.297 193.957 193.937 193.91 198.93C194.937 197.297 196.407 196.013 198.32 195.08C200.28 194.147 202.427 193.68 204.76 193.68C209.333 193.68 212.997 195.127 215.75 198.02C218.55 200.913 219.95 204.95 219.95 210.13C219.95 213.537 219.25 216.523 217.85 219.09C216.497 221.657 214.49 223.663 211.83 225.11C209.217 226.557 206.113 227.28 202.52 227.28C195.333 227.28 190.34 225.04 187.54 220.56C184.74 216.033 183.34 209.547 183.34 201.1C183.34 192.233 184.81 185.653 187.75 181.36C190.737 177.02 195.497 174.85 202.03 174.85C205.53 174.85 208.47 175.55 210.85 176.95C213.277 178.303 215.097 180.1 216.31 182.34C217.57 184.58 218.317 187.03 218.55 189.69H207.42ZM201.89 203.13C199.883 203.13 198.203 203.737 196.85 204.95C195.543 206.117 194.89 207.797 194.89 209.99C194.89 212.23 195.497 213.98 196.71 215.24C197.97 216.5 199.743 217.13 202.03 217.13C204.083 217.13 205.693 216.523 206.86 215.31C208.073 214.05 208.68 212.347 208.68 210.2C208.68 208.007 208.097 206.28 206.93 205.02C205.763 203.76 204.083 203.13 201.89 203.13Z" fill="white"/>
</g>
<defs>
<filter id="filter0_d_452_69" x="175.34" y="170.85" width="52.6104" height="68.4297" filterUnits="userSpaceOnUse" color-interpolation-filters="sRGB">
<feFlood flood-opacity="0" result="BackgroundImageFix"/>
<feColorMatrix in="SourceAlpha" type="matrix" values="0 0 0 0 0 0 0 0 0 0 0 0 0 0 0 0 0 0 127 0" result="hardAlpha"/>
<feOffset dy="4"/>
<feGaussianBlur stdDeviation="4"/>
<feComposite in2="hardAlpha" operator="out"/>
<feColorMatrix type="matrix" values="0 0 0 0 0 0 0 0 0 0 0 0 0 0 0 0 0 0 0.49 0"/>
<feBlend mode="normal" in2="BackgroundImageFix" result="effect1_dropShadow_452_69"/>
<feBlend mode="normal" in="SourceGraphic" in2="effect1_dropShadow_452_69" result="shape"/>
</filter>
<linearGradient id="paint0_linear_452_69" x1="150" y1="0" x2="150" y2="300" gradientUnits="userSpaceOnUse">
<stop stop-color="#288DD7"/>
<stop offset="1" stop-color="#013D69"/>
</linearGradient>
<linearGradient id="paint1_linear_452_69" x1="150" y1="50" x2="150" y2="300" gradientUnits="userSpaceOnUse">
<stop stop-color="#1EFFF1"/>
<stop offset="1" stop-color="#007069"/>
</linearGradient>
<linearGradient id="paint2_linear_452_69" x1="150" y1="100" x2="150" y2="300" gradientUnits="userSpaceOnUse">
<stop stop-color="#82F8FF"/>
<stop offset="1" stop-color="#01B4BE" stop-opacity="0"/>
</linearGradient>
<linearGradient id="paint3_linear_452_69" x1="268.5" y1="110.5" x2="147" y2="287.5" gradientUnits="userSpaceOnUse">
<stop stop-color="#61FFFF"/>
<stop offset="1" stop-color="#049898"/>
</linearGradient>
</defs>
</svg>
