<svg width="300" height="300" viewBox="0 0 300 300" fill="none" xmlns="http://www.w3.org/2000/svg">
<path d="M133.75 9.95929C143.806 4.15372 156.194 4.15373 166.25 9.95929L263.154 65.9067C273.209 71.7123 279.404 82.4414 279.404 94.0526V205.947C279.404 217.559 273.209 228.288 263.154 234.093L166.25 290.041C156.194 295.846 143.806 295.846 133.75 290.041L36.8462 234.093C26.7907 228.288 20.5962 217.559 20.5962 205.947V94.0526C20.5962 82.4414 26.7907 71.7123 36.8462 65.9067L133.75 9.95929Z" fill="url(#paint0_linear_452_89)" stroke="#01D715"/>
<path d="M133.75 59.9593C143.806 54.1537 156.194 54.1537 166.25 59.9593L241.503 103.407C251.559 109.212 257.753 119.941 257.753 131.553V218.447C257.753 230.059 251.559 240.788 241.503 246.593L166.25 290.041C156.194 295.846 143.806 295.846 133.75 290.041L58.4968 246.593C48.4413 240.788 42.2468 230.059 42.2468 218.447V131.553C42.2468 119.941 48.4413 109.212 58.4968 103.407L133.75 59.9593Z" fill="url(#paint1_linear_452_89)" stroke="#0CE309"/>
<path d="M133.75 109.959C143.806 104.154 156.194 104.154 166.25 109.959L219.853 140.907C229.908 146.712 236.103 157.441 236.103 169.053V230.947C236.103 242.559 229.908 253.288 219.853 259.093L166.25 290.041C156.194 295.846 143.806 295.846 133.75 290.041L80.1475 259.093C70.0919 253.288 63.8975 242.559 63.8975 230.947V169.053C63.8975 157.441 70.0919 146.712 80.1475 140.907L133.75 109.959Z" fill="url(#paint2_linear_452_89)" stroke="#FEFFDC"/>
<mask id="path-4-inside-1_452_89" fill="white">
<path fill-rule="evenodd" clip-rule="evenodd" d="M96 269.012V177.452L279.904 96V206.137C279.904 217.926 273.614 228.821 263.404 234.715L166.5 290.663C156.29 296.558 143.71 296.558 133.5 290.663L96 269.012Z"/>
</mask>
<path fill-rule="evenodd" clip-rule="evenodd" d="M96 269.012V177.452L279.904 96V206.137C279.904 217.926 273.614 228.821 263.404 234.715L166.5 290.663C156.29 296.558 143.71 296.558 133.5 290.663L96 269.012Z" fill="url(#paint3_linear_452_89)"/>
<path d="M96 177.452L95.595 176.538L95 176.801V177.452H96ZM96 269.012H95V269.59L95.5 269.878L96 269.012ZM279.904 96H280.904V94.4634L279.499 95.0857L279.904 96ZM263.404 234.715L262.904 233.849L263.404 234.715ZM166.5 290.663L166 289.797L166.5 290.663ZM133.5 290.663L134 289.797L133.5 290.663ZM95 177.452V269.012H97V177.452H95ZM279.499 95.0857L95.595 176.538L96.405 178.366L280.309 96.9143L279.499 95.0857ZM278.904 96V206.137H280.904V96H278.904ZM278.904 206.137C278.904 217.569 272.805 228.133 262.904 233.849L263.904 235.581C274.423 229.508 280.904 218.284 280.904 206.137H278.904ZM262.904 233.849L166 289.797L167 291.529L263.904 235.581L262.904 233.849ZM166 289.797C156.099 295.513 143.901 295.513 134 289.797L133 291.529C143.52 297.602 156.48 297.602 167 291.529L166 289.797ZM134 289.797L96.5 268.146L95.5 269.878L133 291.529L134 289.797Z" fill="#86FB11" mask="url(#path-4-inside-1_452_89)"/>
<g filter="url(#filter0_d_452_89)">
<path d="M186.55 196.56C182.163 194.227 179.97 190.563 179.97 185.57C179.97 183.05 180.623 180.763 181.93 178.71C183.237 176.61 185.22 174.953 187.88 173.74C190.54 172.48 193.807 171.85 197.68 171.85C201.553 171.85 204.797 172.48 207.41 173.74C210.07 174.953 212.053 176.61 213.36 178.71C214.667 180.763 215.32 183.05 215.32 185.57C215.32 188.09 214.713 190.283 213.5 192.15C212.333 194.017 210.747 195.487 208.74 196.56C211.26 197.773 213.197 199.453 214.55 201.6C215.903 203.7 216.58 206.173 216.58 209.02C216.58 212.333 215.74 215.203 214.06 217.63C212.38 220.01 210.093 221.83 207.2 223.09C204.353 224.35 201.18 224.98 197.68 224.98C194.18 224.98 190.983 224.35 188.09 223.09C185.243 221.83 182.98 220.01 181.3 217.63C179.62 215.203 178.78 212.333 178.78 209.02C178.78 206.127 179.457 203.63 180.81 201.53C182.163 199.383 184.077 197.727 186.55 196.56ZM203.7 187.39C203.7 185.477 203.14 184.007 202.02 182.98C200.947 181.907 199.5 181.37 197.68 181.37C195.86 181.37 194.39 181.907 193.27 182.98C192.197 184.053 191.66 185.547 191.66 187.46C191.66 189.28 192.22 190.727 193.34 191.8C194.46 192.827 195.907 193.34 197.68 193.34C199.453 193.34 200.9 192.803 202.02 191.73C203.14 190.657 203.7 189.21 203.7 187.39ZM197.68 201.74C195.487 201.74 193.713 202.347 192.36 203.56C191.007 204.727 190.33 206.36 190.33 208.46C190.33 210.42 190.983 212.03 192.29 213.29C193.643 214.55 195.44 215.18 197.68 215.18C199.92 215.18 201.67 214.55 202.93 213.29C204.237 212.03 204.89 210.42 204.89 208.46C204.89 206.407 204.213 204.773 202.86 203.56C201.553 202.347 199.827 201.74 197.68 201.74Z" fill="white"/>
</g>
<defs>
<filter id="filter0_d_452_89" x="170.78" y="167.85" width="53.7998" height="69.1299" filterUnits="userSpaceOnUse" color-interpolation-filters="sRGB">
<feFlood flood-opacity="0" result="BackgroundImageFix"/>
<feColorMatrix in="SourceAlpha" type="matrix" values="0 0 0 0 0 0 0 0 0 0 0 0 0 0 0 0 0 0 127 0" result="hardAlpha"/>
<feOffset dy="4"/>
<feGaussianBlur stdDeviation="4"/>
<feComposite in2="hardAlpha" operator="out"/>
<feColorMatrix type="matrix" values="0 0 0 0 0 0 0 0 0 0 0 0 0 0 0 0 0 0 0.49 0"/>
<feBlend mode="normal" in2="BackgroundImageFix" result="effect1_dropShadow_452_89"/>
<feBlend mode="normal" in="SourceGraphic" in2="effect1_dropShadow_452_89" result="shape"/>
</filter>
<linearGradient id="paint0_linear_452_89" x1="150" y1="0" x2="150" y2="300" gradientUnits="userSpaceOnUse">
<stop stop-color="#00BC13"/>
<stop offset="1" stop-color="#00E016"/>
</linearGradient>
<linearGradient id="paint1_linear_452_89" x1="150" y1="50" x2="150" y2="300" gradientUnits="userSpaceOnUse">
<stop stop-color="#CCFF99"/>
<stop offset="1" stop-color="#CCFF99"/>
</linearGradient>
<linearGradient id="paint2_linear_452_89" x1="150" y1="100" x2="150" y2="300" gradientUnits="userSpaceOnUse">
<stop stop-color="#D9FF6C"/>
<stop offset="1" stop-color="#D9FF6C"/>
</linearGradient>
<linearGradient id="paint3_linear_452_89" x1="268.5" y1="110.5" x2="147" y2="287.5" gradientUnits="userSpaceOnUse">
<stop stop-color="#86FB11"/>
<stop offset="1" stop-color="#86FB11"/>
</linearGradient>
</defs>
</svg>
