<svg width="300" height="300" viewBox="0 0 300 300" fill="none" xmlns="http://www.w3.org/2000/svg">
<path d="M133.75 9.95929C143.806 4.15372 156.194 4.15373 166.25 9.95929L263.154 65.9067C273.209 71.7123 279.404 82.4414 279.404 94.0526V205.947C279.404 217.559 273.209 228.288 263.154 234.093L166.25 290.041C156.194 295.846 143.806 295.846 133.75 290.041L36.8462 234.093C26.7907 228.288 20.5962 217.559 20.5962 205.947V94.0526C20.5962 82.4414 26.7907 71.7123 36.8462 65.9067L133.75 9.95929Z" fill="url(#paint0_linear_452_99)" stroke="#CF151A"/>
<path d="M133.75 59.9593C143.806 54.1537 156.194 54.1537 166.25 59.9593L241.503 103.407C251.559 109.212 257.753 119.941 257.753 131.553V218.447C257.753 230.059 251.559 240.788 241.503 246.593L166.25 290.041C156.194 295.846 143.806 295.846 133.75 290.041L58.4968 246.593C48.4413 240.788 42.2468 230.059 42.2468 218.447V131.553C42.2468 119.941 48.4413 109.212 58.4968 103.407L133.75 59.9593Z" fill="url(#paint1_linear_452_99)" stroke="#F81D85"/>
<path d="M133.75 109.959C143.806 104.154 156.194 104.154 166.25 109.959L219.853 140.907C229.908 146.712 236.103 157.441 236.103 169.053V230.947C236.103 242.559 229.908 253.288 219.853 259.093L166.25 290.041C156.194 295.846 143.806 295.846 133.75 290.041L80.1475 259.093C70.0919 253.288 63.8975 242.559 63.8975 230.947V169.053C63.8975 157.441 70.0919 146.712 80.1475 140.907L133.75 109.959Z" fill="url(#paint2_linear_452_99)" stroke="#FF9F80"/>
<mask id="path-4-inside-1_452_99" fill="white">
<path fill-rule="evenodd" clip-rule="evenodd" d="M96 269.012V177.452L279.904 96V206.137C279.904 217.926 273.614 228.821 263.404 234.715L166.5 290.663C156.29 296.558 143.71 296.558 133.5 290.663L96 269.012Z"/>
</mask>
<path fill-rule="evenodd" clip-rule="evenodd" d="M96 269.012V177.452L279.904 96V206.137C279.904 217.926 273.614 228.821 263.404 234.715L166.5 290.663C156.29 296.558 143.71 296.558 133.5 290.663L96 269.012Z" fill="url(#paint3_linear_452_99)"/>
<path d="M96 177.452L95.595 176.538L95 176.801V177.452H96ZM96 269.012H95V269.59L95.5 269.878L96 269.012ZM279.904 96H280.904V94.4634L279.499 95.0857L279.904 96ZM263.404 234.715L262.904 233.849L263.404 234.715ZM166.5 290.663L166 289.797L166.5 290.663ZM133.5 290.663L134 289.797L133.5 290.663ZM95 177.452V269.012H97V177.452H95ZM279.499 95.0857L95.595 176.538L96.405 178.366L280.309 96.9143L279.499 95.0857ZM278.904 96V206.137H280.904V96H278.904ZM278.904 206.137C278.904 217.569 272.805 228.133 262.904 233.849L263.904 235.581C274.423 229.508 280.904 218.284 280.904 206.137H278.904ZM262.904 233.849L166 289.797L167 291.529L263.904 235.581L262.904 233.849ZM166 289.797C156.099 295.513 143.901 295.513 134 289.797L133 291.529C143.52 297.602 156.48 297.602 167 291.529L166 289.797ZM134 289.797L96.5 268.146L95.5 269.878L133 291.529L134 289.797Z" fill="#FF6164" mask="url(#path-4-inside-1_452_99)"/>
<g filter="url(#filter0_d_452_99)">
<path d="M200.03 212.02C200.73 215.707 202.877 217.55 206.47 217.55C208.943 217.55 210.693 216.453 211.72 214.26C212.747 212.067 213.26 208.497 213.26 203.55C212.233 204.997 210.833 206.117 209.06 206.91C207.287 207.703 205.303 208.1 203.11 208.1C200.123 208.1 197.463 207.493 195.13 206.28C192.797 205.02 190.953 203.177 189.6 200.75C188.293 198.277 187.64 195.29 187.64 191.79C187.64 188.337 188.34 185.327 189.74 182.76C191.187 180.193 193.217 178.21 195.83 176.81C198.49 175.41 201.617 174.71 205.21 174.71C212.117 174.71 216.947 176.857 219.7 181.15C222.453 185.443 223.83 191.767 223.83 200.12C223.83 206.187 223.27 211.203 222.15 215.17C221.077 219.09 219.233 222.077 216.62 224.13C214.053 226.183 210.53 227.21 206.05 227.21C202.503 227.21 199.47 226.51 196.95 225.11C194.477 223.71 192.563 221.867 191.21 219.58C189.903 217.293 189.157 214.773 188.97 212.02H200.03ZM205.84 198.65C207.8 198.65 209.363 198.067 210.53 196.9C211.697 195.687 212.28 194.053 212.28 192C212.28 189.76 211.673 188.033 210.46 186.82C209.247 185.607 207.613 185 205.56 185C203.507 185 201.873 185.63 200.66 186.89C199.493 188.103 198.91 189.783 198.91 191.93C198.91 193.937 199.493 195.57 200.66 196.83C201.873 198.043 203.6 198.65 205.84 198.65Z" fill="white"/>
</g>
<defs>
<filter id="filter0_d_452_99" x="179.64" y="170.71" width="52.1904" height="68.5" filterUnits="userSpaceOnUse" color-interpolation-filters="sRGB">
<feFlood flood-opacity="0" result="BackgroundImageFix"/>
<feColorMatrix in="SourceAlpha" type="matrix" values="0 0 0 0 0 0 0 0 0 0 0 0 0 0 0 0 0 0 127 0" result="hardAlpha"/>
<feOffset dy="4"/>
<feGaussianBlur stdDeviation="4"/>
<feComposite in2="hardAlpha" operator="out"/>
<feColorMatrix type="matrix" values="0 0 0 0 0 0 0 0 0 0 0 0 0 0 0 0 0 0 0.49 0"/>
<feBlend mode="normal" in2="BackgroundImageFix" result="effect1_dropShadow_452_99"/>
<feBlend mode="normal" in="SourceGraphic" in2="effect1_dropShadow_452_99" result="shape"/>
</filter>
<linearGradient id="paint0_linear_452_99" x1="150" y1="0" x2="150" y2="300" gradientUnits="userSpaceOnUse">
<stop stop-color="#D1161B"/>
<stop offset="1" stop-color="#601012"/>
</linearGradient>
<linearGradient id="paint1_linear_452_99" x1="150" y1="50" x2="150" y2="300" gradientUnits="userSpaceOnUse">
<stop stop-color="#FF1E8A"/>
<stop offset="1" stop-color="#9B1556" stop-opacity="0"/>
</linearGradient>
<linearGradient id="paint2_linear_452_99" x1="150" y1="100" x2="150" y2="300" gradientUnits="userSpaceOnUse">
<stop stop-color="#FFA582"/>
<stop offset="1" stop-color="#FFA582" stop-opacity="0"/>
</linearGradient>
<linearGradient id="paint3_linear_452_99" x1="268.5" y1="110.5" x2="147" y2="287.5" gradientUnits="userSpaceOnUse">
<stop stop-color="#FF6165"/>
<stop offset="0.867757" stop-color="#C10408"/>
</linearGradient>
</defs>
</svg>
