<svg width="25" height="31" viewBox="0 0 25 31" fill="none" xmlns="http://www.w3.org/2000/svg">
  <path
    d="M3.95866 30.0833C3.01908 30.0833 2.21502 29.7979 1.54649 29.2272C0.876825 28.6556 0.541992 27.9687 0.541992 27.1666V12.5833C0.541992 11.7812 0.876825 11.0943 1.54649 10.5227C2.21502 9.95197 3.01908 9.66663 3.95866 9.66663H21.042C21.9816 9.66663 22.7862 9.95197 23.4559 10.5227C24.1244 11.0943 24.4587 11.7812 24.4587 12.5833V27.1666C24.4587 27.9687 24.1244 28.6556 23.4559 29.2272C22.7862 29.7979 21.9816 30.0833 21.042 30.0833H3.95866ZM10.792 27.8958H14.2087V25.7083H10.792V27.8958ZM10.792 24.25H14.2087C14.2087 23.6909 14.429 23.1382 14.8698 22.5918C15.3117 22.0445 15.8031 21.4733 16.3441 20.8783C16.885 20.2823 17.3765 19.662 17.8184 19.0175C18.2591 18.3738 18.4795 17.6875 18.4795 16.9583C18.4795 15.5486 17.8958 14.3454 16.7285 13.3489C15.5611 12.3524 14.1517 11.8541 12.5003 11.8541C10.8489 11.8541 9.43956 12.3524 8.2722 13.3489C7.10484 14.3454 6.52116 15.5486 6.52116 16.9583C6.52116 17.6875 6.74153 18.3738 7.18228 19.0175C7.62417 19.662 8.1156 20.2823 8.65658 20.8783C9.19755 21.4733 9.68898 22.0445 10.1309 22.5918C10.5716 23.1382 10.792 23.6909 10.792 24.25ZM2.25033 7.47913C2.25033 6.87149 2.49974 6.35524 2.99858 5.93038C3.49627 5.50454 4.10102 5.29163 4.81283 5.29163H20.1878C20.8996 5.29163 21.5044 5.50454 22.0021 5.93038C22.5009 6.35524 22.7503 6.87149 22.7503 7.47913H2.25033ZM3.95866 3.10413C3.95866 2.49649 4.20808 1.98024 4.70691 1.55538C5.2046 1.12954 5.80935 0.916626 6.52116 0.916626H18.4795C19.1913 0.916626 19.796 1.12954 20.2937 1.55538C20.7926 1.98024 21.042 2.49649 21.042 3.10413H3.95866Z"
    fill="#02FFF0" />
</svg>