<svg width="47" height="41" viewBox="0 0 47 41" fill="none" xmlns="http://www.w3.org/2000/svg">
  <path
    d="M11.0307 38.4375C10.3164 38.4386 9.60519 38.3567 8.91569 38.1941C6.84608 37.6792 5.09023 36.4773 4.02485 34.8461C2.95946 33.2149 2.66942 31.2844 3.21694 29.4688L6.63913 18.1425C6.90917 17.2305 7.3846 16.3745 8.0377 15.6244C8.6908 14.8743 9.50852 14.2451 10.4432 13.7735C11.3562 13.3122 12.3651 13.0135 13.4114 12.8947C14.4577 12.7759 15.5206 12.8395 16.5385 13.0816C17.618 13.3408 18.6242 13.7923 19.4938 14.4075C20.3634 15.0227 21.0774 15.7884 21.591 16.6563H25.4098C25.9179 15.7822 26.6299 15.0105 27.5 14.3905C28.37 13.7705 29.379 13.3159 30.4623 13.056C31.4802 12.8138 32.5431 12.7503 33.5894 12.8691C34.6357 12.9878 35.6445 13.2865 36.5576 13.7478C37.4917 14.22 38.309 14.8494 38.9621 15.5994C39.6151 16.3495 40.0908 17.2052 40.3616 18.1169L43.7838 29.4688C44.3395 31.2897 44.0518 33.2282 42.9827 34.8656C41.9137 36.5029 40.1492 37.7077 38.0704 38.2197C37.0524 38.4618 35.9895 38.5254 34.9432 38.4066C33.897 38.2878 32.8881 37.9892 31.9751 37.5278C31.0404 37.0562 30.2227 36.427 29.5696 35.6769C28.9165 34.9268 28.441 34.0708 28.171 33.1588L27.9066 32.0313H19.0941L18.7563 33.1332C18.4863 34.0452 18.0108 34.9012 17.3577 35.6513C16.7046 36.4014 15.8869 37.0306 14.9523 37.5022C13.7589 38.1027 12.4083 38.4248 11.0307 38.4375ZM14.4382 15.375C13.5519 15.3777 12.6814 15.5807 11.9119 15.9644C11.3137 16.269 10.7904 16.6736 10.372 17.1552C9.95355 17.6367 9.64832 18.1856 9.47381 18.7703L6.05163 30.0966C5.69353 31.2635 5.87447 32.5063 6.55558 33.5581C7.23669 34.6099 8.3636 35.3866 9.69413 35.7213C10.3367 35.8742 11.0077 35.9144 11.6682 35.8396C12.3287 35.7649 12.9657 35.5766 13.5423 35.2857C14.141 34.9816 14.6647 34.5771 15.0832 34.0955C15.5017 33.6139 15.8066 33.0647 15.9804 32.4797L16.891 29.4688H30.1098L31.0057 32.4797C31.3611 33.6595 32.2378 34.6684 33.4438 35.2857C34.0232 35.5763 34.6626 35.7644 35.3255 35.8391C35.9883 35.9139 36.6616 35.8738 37.3066 35.7213C38.6388 35.3897 39.7671 34.6129 40.4464 33.5597C41.1257 32.5065 41.3011 31.262 40.9344 30.0966L37.5123 18.7703C37.3433 18.1853 37.0418 17.6356 36.6256 17.1537C36.2094 16.6718 35.6869 16.2675 35.0888 15.9644C34.5094 15.6738 33.87 15.4857 33.2071 15.4109C32.5443 15.3362 31.8711 15.3762 31.226 15.5288C30.4282 15.7272 29.6963 16.0887 29.0909 16.5834C28.4854 17.0781 28.0241 17.6917 27.7451 18.3732L27.3926 19.2188H19.6082L19.2557 18.3732C18.9742 17.6908 18.5102 17.0768 17.9023 16.5821C17.2944 16.0874 16.56 15.7263 15.7601 15.5288C15.329 15.4274 14.8846 15.3757 14.4382 15.375Z"
    fill="rgba(255, 255, 255, 0.5)" />
  <path
    d="M14.6875 25.625C14.1065 25.625 13.5386 25.4747 13.0555 25.1931C12.5724 24.9116 12.1959 24.5114 11.9736 24.0431C11.7513 23.5749 11.6931 23.0597 11.8064 22.5626C11.9198 22.0655 12.1996 21.6089 12.6104 21.2505C13.0212 20.8922 13.5446 20.6481 14.1144 20.5492C14.6842 20.4504 15.2749 20.5011 15.8116 20.6951C16.3484 20.889 16.8072 21.2175 17.1299 21.6389C17.4527 22.0603 17.625 22.5557 17.625 23.0625C17.625 23.7421 17.3155 24.3939 16.7646 24.8745C16.2137 25.355 15.4666 25.625 14.6875 25.625Z"
    fill="rgba(255, 255, 255, 0.5)" />
  <path
    d="M32.3125 21.7812C33.1237 21.7812 33.7812 21.2076 33.7812 20.5C33.7812 19.7924 33.1237 19.2188 32.3125 19.2188C31.5013 19.2188 30.8438 19.7924 30.8438 20.5C30.8438 21.2076 31.5013 21.7812 32.3125 21.7812Z"
    fill="rgba(255, 255, 255, 0.5)" />
  <path
    d="M32.3125 26.9062C33.1237 26.9062 33.7812 26.3326 33.7812 25.625C33.7812 24.9174 33.1237 24.3438 32.3125 24.3438C31.5013 24.3438 30.8438 24.9174 30.8438 25.625C30.8438 26.3326 31.5013 26.9062 32.3125 26.9062Z"
    fill="rgba(255, 255, 255, 0.5)" />
  <path
    d="M29.375 24.3438C30.1862 24.3438 30.8438 23.7701 30.8438 23.0625C30.8438 22.3549 30.1862 21.7812 29.375 21.7812C28.5638 21.7812 27.9062 22.3549 27.9062 23.0625C27.9062 23.7701 28.5638 24.3438 29.375 24.3438Z"
    fill="rgba(255, 255, 255, 0.5)" />
  <path
    d="M35.25 24.3438C36.0612 24.3438 36.7188 23.7701 36.7188 23.0625C36.7188 22.3549 36.0612 21.7812 35.25 21.7812C34.4388 21.7812 33.7812 22.3549 33.7812 23.0625C33.7812 23.7701 34.4388 24.3438 35.25 24.3438Z"
    fill="rgba(255, 255, 255, 0.5)" />
  <path
    d="M20.1953 11.5313L17.9922 9.82724C18.6813 9.14557 19.5289 8.59963 20.4785 8.22568C21.4281 7.85173 22.4581 7.65833 23.5 7.65833C24.5419 7.65833 25.5719 7.85173 26.5215 8.22568C27.4711 8.59963 28.3187 9.14557 29.0078 9.82724L26.8047 11.5313C26.3912 11.1223 25.8827 10.7947 25.3129 10.5704C24.7431 10.346 24.1251 10.23 23.5 10.23C22.8749 10.23 22.2569 10.346 21.6871 10.5704C21.1173 10.7947 20.6088 11.1223 20.1953 11.5313Z"
    fill="rgba(255, 255, 255, 0.5)" />
  <path
    d="M31.2109 8.16158C30.2461 7.20724 29.0596 6.44292 27.7301 5.91939C26.4006 5.39586 24.9587 5.1251 23.5 5.1251C22.0413 5.1251 20.5994 5.39586 19.2699 5.91939C17.9404 6.44292 16.7539 7.20724 15.7891 8.16158L13.5859 6.47033C14.8264 5.24333 16.352 4.26063 18.0613 3.58752C19.7706 2.9144 21.6246 2.56628 23.5 2.56628C25.3754 2.56628 27.2294 2.9144 28.9387 3.58752C30.648 4.26063 32.1736 5.24333 33.4141 6.47033L31.2109 8.16158Z"
    fill="rgba(255, 255, 255, 0.5)" />
</svg>