<svg width="35" height="33" viewBox="0 0 35 33" fill="none" xmlns="http://www.w3.org/2000/svg">
  <path
    d="M26.042 0.151245H8.95866C3.83366 0.151245 0.416992 3.56791 0.416992 8.69291V18.9429C0.416992 24.0679 3.83366 27.4846 8.95866 27.4846V31.1233C8.95866 32.49 10.4791 33.31 11.6066 32.5412L19.2087 27.4846H26.042C31.167 27.4846 34.5837 24.0679 34.5837 18.9429V8.69291C34.5837 3.56791 31.167 0.151245 26.042 0.151245ZM17.5003 20.9417C17.1605 20.9417 16.8346 20.8067 16.5943 20.5664C16.3541 20.3261 16.2191 20.0002 16.2191 19.6604C16.2191 19.3206 16.3541 18.9947 16.5943 18.7544C16.8346 18.5141 17.1605 18.3792 17.5003 18.3792C17.8401 18.3792 18.166 18.5141 18.4063 18.7544C18.6466 18.9947 18.7816 19.3206 18.7816 19.6604C18.7816 20.0002 18.6466 20.3261 18.4063 20.5664C18.166 20.8067 17.8401 20.9417 17.5003 20.9417ZM19.6528 13.8521C18.9866 14.2962 18.7816 14.5867 18.7816 15.065V15.4237C18.7816 16.1242 18.2007 16.705 17.5003 16.705C16.7999 16.705 16.2191 16.1242 16.2191 15.4237V15.065C16.2191 13.0833 17.6712 12.1096 18.2178 11.7337C18.8499 11.3067 19.0549 11.0162 19.0549 10.5721C19.0549 9.71791 18.3545 9.01749 17.5003 9.01749C16.6462 9.01749 15.9457 9.71791 15.9457 10.5721C15.9457 11.2725 15.3649 11.8533 14.6645 11.8533C13.9641 11.8533 13.3832 11.2725 13.3832 10.5721C13.3832 8.29999 15.2282 6.45499 17.5003 6.45499C19.7724 6.45499 21.6174 8.29999 21.6174 10.5721C21.6174 12.5196 20.1824 13.4933 19.6528 13.8521Z"
    fill="rgba(255, 255, 255, 0.5)" />
</svg>