<svg width="100" height="97" viewBox="0 0 100 97" fill="none" xmlns="http://www.w3.org/2000/svg">
<path d="M49.9714 0L16.4693 17.7507L0 26.4733L0.017077 44.3429L16.5888 35.5142V35.2936L48.541 18.2089L49.6683 17.6065L49.9714 0Z" fill="#85FFFF"/>
<path d="M81.8848 35.1048V34.9907L49.1349 17.4571C49.1012 17.4394 49.0733 17.4125 49.0544 17.3796C49.0356 17.3466 49.0266 17.309 49.0286 17.2712L49.3221 0.202205C49.3222 0.167072 49.3314 0.132566 49.349 0.102071C49.3666 0.0715766 49.3918 0.0461348 49.4223 0.0282474C49.4527 0.01036 49.4873 0.000635663 49.5227 3.01219e-05C49.5581 -0.000575419 49.593 0.0079582 49.624 0.0247928L81.8848 17.1487L98.9189 26.188C98.9526 26.2052 98.9806 26.2316 98.9997 26.264L81.8848 35.1048Z" fill="url(#paint0_linear_604_31)"/>
<path d="M16.4941 35.1048L48.8354 52.6553C48.2263 52.3984 48.5162 52.6553 48.8354 52.6553L49.0286 70.0079C49.0285 70.0429 49.0193 70.0773 49.002 70.1078C48.9846 70.1382 48.9597 70.1635 48.9296 70.1814C48.8996 70.1992 48.8654 70.2089 48.8304 70.2095C48.7955 70.2101 48.761 70.2016 48.7304 70.1848L16.8805 53.1061L0.0797978 44.0907C0.0465751 44.0735 0.0189062 44.0472 0 44.0149L16.4941 35.1048Z" fill="url(#paint1_linear_604_31)"/>
<path d="M99 43.419V43.9579C99 44.0323 99 44.1058 99 44.1727C99 44.2396 99 44.2979 99 44.3428C99 44.0506 99 43.7364 99 43.419Z" fill="#0067B4" stroke="#231F20" stroke-miterlimit="10"/>
<path d="M49.9714 26.7905L16.4693 44.1714L0 52.7164L0.0170803 70.2095L16.5888 61.5648V61.3529L48.541 44.62L49.6683 44.0301L49.9714 26.7905Z" fill="#85FFFF"/>
<path d="M81.8988 61.8952V61.7812L49.135 44.2475C49.1012 44.2299 49.0733 44.203 49.0544 44.17C49.0356 44.1371 49.0266 44.0995 49.0286 44.0617L49.3222 26.9927C49.3223 26.9575 49.3316 26.923 49.3492 26.8925C49.3667 26.862 49.392 26.8366 49.4224 26.8187C49.4529 26.8008 49.4875 26.7911 49.5229 26.7905C49.5583 26.7899 49.5932 26.7984 49.6243 26.8153L81.8988 43.9392L98.9189 52.9785C98.9526 52.9957 98.9806 53.0221 98.9997 53.0545L81.8988 61.8952Z" fill="url(#paint2_linear_604_31)"/>
<path d="M16.5136 61.8952L48.8355 79.4458C48.2268 79.1888 48.5164 79.4458 48.8355 79.4458L49.0286 96.7983C49.0285 96.8334 49.0193 96.8678 49.002 96.8982C48.9846 96.9286 48.9597 96.954 48.9297 96.9718C48.8996 96.9896 48.8655 96.9993 48.8306 96.9999C48.7956 97.0005 48.7612 96.992 48.7305 96.9752L16.8913 79.8965L0.0797564 70.8811C0.0465535 70.8639 0.0188949 70.8376 0 70.8053L16.5136 61.8952Z" fill="url(#paint3_linear_604_31)"/>
<path d="M99 69.2857V69.8246C99 69.8989 99 69.9725 99 70.0394C99 70.1063 99 70.1646 99 70.2095C99 69.9173 99 69.6031 99 69.2857Z" fill="#0067B4" stroke="#231F20" stroke-miterlimit="10"/>
<path d="M98.9992 26.9113V43.6208C98.9994 43.741 98.9749 43.86 98.9271 43.9707C98.8388 44.1533 98.6891 44.3004 98.5032 44.3872L49.3251 70.2095L49.0283 52.9252L81.8971 35.5076L98.9738 26.7905C98.9933 26.8277 99.0021 26.8695 98.9992 26.9113Z" fill="#85FFFF"/>
<path d="M98.9936 52.7635V69.8351C98.9939 69.9579 98.9693 70.0795 98.9215 70.1925C98.8386 70.3757 98.6967 70.5255 98.5187 70.6181L49.3252 97L49.0283 79.3411L81.9074 61.5461L98.9936 52.6571C99.0018 52.6921 99.0018 52.7285 98.9936 52.7635Z" fill="#85FFFF"/>
<defs>
<linearGradient id="paint0_linear_604_31" x1="54.2601" y1="11.1211" x2="86.4609" y2="28.7825" gradientUnits="userSpaceOnUse">
<stop offset="0.17" stop-color="#0067B4"/>
<stop offset="1" stop-color="#1E4281"/>
</linearGradient>
<linearGradient id="paint1_linear_604_31" x1="44.1648" y1="59.1431" x2="12.2207" y2="41.7953" gradientUnits="userSpaceOnUse">
<stop offset="0.17" stop-color="#0067B4"/>
<stop offset="1" stop-color="#1E4281"/>
</linearGradient>
<linearGradient id="paint2_linear_604_31" x1="54.2623" y1="37.9074" x2="86.4704" y2="55.5845" gradientUnits="userSpaceOnUse">
<stop stop-color="#0067B4"/>
<stop offset="1" stop-color="#1E4281"/>
</linearGradient>
<linearGradient id="paint3_linear_604_31" x1="44.1677" y1="85.9377" x2="12.234" y2="68.6018" gradientUnits="userSpaceOnUse">
<stop offset="0.17" stop-color="#0067B4"/>
<stop offset="1" stop-color="#1E4281"/>
</linearGradient>
</defs>
</svg>
