<svg width="33" height="24" viewBox="0 0 33 24" fill="none" xmlns="http://www.w3.org/2000/svg">
  <path
    d="M22.3333 14C23.0736 14 23.6858 13.8111 24.1698 13.4333C24.6538 13.0556 24.8958 12.5778 24.8958 12C24.8958 11.4222 24.6538 10.9444 24.1698 10.5667C23.6858 10.1889 23.0736 10 22.3333 10C21.5931 10 20.9809 10.1889 20.4969 10.5667C20.0128 10.9444 19.7708 11.4222 19.7708 12C19.7708 12.5778 20.0128 13.0556 20.4969 13.4333C20.9809 13.8111 21.5931 14 22.3333 14ZM17.2083 18.6667C16.2687 18.6667 15.4647 18.4058 14.7962 17.884C14.1265 17.3613 13.7917 16.7333 13.7917 16V8C13.7917 7.26667 14.1265 6.63867 14.7962 6.116C15.4647 5.59422 16.2687 5.33333 17.2083 5.33333H29.1667C30.1062 5.33333 30.9109 5.59422 31.5805 6.116C32.2491 6.63867 32.5833 7.26667 32.5833 8V16C32.5833 16.7333 32.2491 17.3613 31.5805 17.884C30.9109 18.4058 30.1062 18.6667 29.1667 18.6667H17.2083ZM3.54167 24C2.60208 24 1.79746 23.7391 1.12779 23.2173C0.459264 22.6947 0.125 22.0667 0.125 21.3333V2.66667C0.125 1.93333 0.459264 1.30533 1.12779 0.782667C1.79746 0.260889 2.60208 0 3.54167 0H27.4583C28.3979 0 29.2025 0.260889 29.8722 0.782667C30.5407 1.30533 30.875 1.93333 30.875 2.66667H17.2083C15.1868 2.66667 13.5428 3.16089 12.2764 4.14933C11.0088 5.13867 10.375 6.42222 10.375 8V16C10.375 17.5778 11.0088 18.8609 12.2764 19.8493C13.5428 20.8387 15.1868 21.3333 17.2083 21.3333H30.875C30.875 22.0667 30.5407 22.6947 29.8722 23.2173C29.2025 23.7391 28.3979 24 27.4583 24H3.54167Z"
    fill="rgba(255, 255, 255, 0.5)" />
</svg>