<?xml version="1.0" standalone="no"?>
<!DOCTYPE svg PUBLIC "-//W3C//DTD SVG 20010904//EN"
 "http://www.w3.org/TR/2001/REC-SVG-20010904/DTD/svg10.dtd">
<svg version="1.0" xmlns="http://www.w3.org/2000/svg"
 width="800.000000pt" height="800.000000pt" viewBox="0 0 800.000000 800.000000"
 preserveAspectRatio="xMidYMid meet">
<metadata>
Created by potrace 1.14, written by Peter Selinger 2001-2017
</metadata>
<g transform="translate(0.000000,800.000000) scale(0.100000,-0.100000)"
fill="#000000" stroke="none">
<path d="M3950 7867 c0 -7 -33 -30 -72 -51 -171 -90 -369 -195 -503 -266 -44
-23 -118 -63 -165 -87 -47 -25 -89 -49 -95 -54 -5 -5 -17 -9 -26 -9 -10 0 -19
-4 -21 -8 -1 -5 -64 -40 -138 -79 -74 -39 -164 -86 -200 -105 -36 -20 -112
-60 -170 -90 -58 -31 -145 -77 -195 -103 -49 -26 -121 -64 -160 -84 -38 -20
-72 -38 -75 -41 -3 -3 -30 -17 -60 -32 -30 -15 -109 -56 -175 -92 -122 -65
-184 -98 -355 -188 -52 -28 -99 -54 -104 -59 -6 -5 -18 -9 -28 -9 -10 0 -18
-4 -18 -9 0 -5 -12 -14 -27 -20 -16 -5 -68 -32 -118 -59 -49 -26 -144 -77
-210 -111 -66 -35 -142 -76 -170 -91 -27 -15 -99 -53 -160 -85 -118 -62 -193
-101 -350 -185 -230 -123 -262 -140 -308 -162 l-47 -23 1 -712 c0 -618 3 -713
15 -713 13 0 69 -28 219 -110 28 -15 88 -48 135 -72 313 -166 290 -150 248
-174 -18 -11 -64 -35 -103 -54 -38 -19 -73 -39 -76 -43 -3 -5 -9 -8 -13 -8
-11 2 -131 -61 -138 -73 -4 -6 -8 -8 -8 -4 0 4 -46 -17 -102 -48 -57 -30 -120
-62 -141 -72 l-37 -17 1 -697 c0 -384 3 -698 6 -698 6 0 126 61 283 144 58 31
155 81 215 112 61 31 138 71 171 89 96 51 336 176 489 255 77 40 147 79 155
89 19 19 17 18 195 111 77 40 172 90 210 110 39 20 108 57 153 81 l84 43 56
-29 c32 -17 59 -32 62 -35 3 -3 39 -22 80 -44 41 -21 102 -53 135 -70 33 -18
94 -51 135 -73 41 -22 111 -59 155 -83 44 -23 107 -57 140 -75 103 -56 187
-101 260 -140 39 -20 76 -42 83 -47 6 -6 12 -7 12 -2 0 5 4 5 8 -1 6 -9 47
-32 177 -99 22 -12 43 -25 47 -31 4 -5 8 -6 8 -2 0 5 13 -1 29 -12 16 -12 32
-21 35 -21 3 0 54 -26 113 -59 144 -78 257 -138 321 -172 29 -15 58 -32 65
-37 23 -19 39 4 41 57 1 29 -1 54 -4 56 -6 4 -3 94 4 127 2 10 1 18 -2 18 -4
0 -8 145 -8 323 -4 763 -5 817 -20 817 -8 0 -17 7 -20 15 -4 8 -14 15 -24 15
-11 0 -21 4 -24 9 -4 5 -27 20 -54 33 -26 13 -83 44 -127 68 -44 23 -120 65
-170 92 -49 27 -101 56 -115 64 -14 8 -33 18 -42 21 -27 8 -22 19 15 34 17 7
34 15 37 19 3 3 48 27 100 54 52 27 127 66 165 86 39 21 122 65 186 98 l115
60 60 -32 c32 -18 176 -95 318 -171 299 -160 287 -131 102 -228 -269 -141
-374 -197 -416 -221 -25 -15 -52 -29 -61 -32 -18 -6 -18 -1 -4 -759 11 -625
12 -645 23 -630 4 6 25 19 47 30 22 11 43 24 47 30 4 5 8 7 8 3 0 -4 19 3 43
16 58 32 320 170 522 275 44 23 84 46 89 52 6 5 18 9 27 9 10 0 19 3 21 8 2 4
41 27 88 51 47 24 117 60 155 80 117 62 333 175 470 246 72 38 133 73 137 79
4 6 8 8 8 3 0 -4 33 10 73 32 39 22 101 55 136 74 l65 34 90 -47 c50 -26 126
-66 169 -89 42 -22 112 -60 155 -82 112 -60 206 -110 215 -116 10 -6 -23 -27
-146 -92 -51 -27 -110 -59 -132 -71 -22 -12 -78 -43 -125 -68 -47 -25 -115
-62 -152 -83 -38 -21 -68 -35 -68 -31 0 4 -4 2 -8 -4 -4 -6 -52 -34 -107 -64
-55 -29 -118 -63 -140 -75 -22 -12 -74 -40 -115 -62 -41 -22 -91 -49 -110 -60
-19 -11 -75 -41 -125 -68 -49 -26 -112 -60 -140 -75 -56 -31 -149 -81 -240
-130 -33 -17 -73 -40 -90 -50 -16 -9 -75 -41 -130 -70 -55 -29 -122 -65 -150
-80 -27 -15 -135 -74 -240 -130 -190 -103 -294 -159 -350 -190 l-30 -17 2
-209 c1 -115 5 -364 8 -554 3 -190 7 -413 8 -496 2 -131 4 -151 17 -145 9 3
65 33 125 66 205 110 290 156 345 183 30 15 57 30 60 33 3 3 59 34 125 69 66
34 140 74 165 87 25 14 90 48 145 76 55 29 102 54 105 57 6 6 35 21 155 83 44
23 82 44 85 47 3 3 32 19 65 36 33 17 92 48 130 69 39 21 104 56 145 77 41 22
93 49 115 62 22 12 94 51 160 85 66 35 134 71 150 81 17 9 68 38 115 62 47 25
119 64 160 86 41 21 104 55 140 74 36 20 101 55 145 78 44 24 107 58 140 76
33 18 83 44 112 58 28 14 55 31 58 36 3 6 15 10 26 10 10 0 19 4 19 9 0 5 12
14 28 20 15 6 68 32 117 59 50 27 144 77 210 112 66 35 122 66 125 70 5 6 22
14 45 20 6 2 26 13 45 25 31 19 170 94 310 167 25 12 54 31 64 41 18 16 38 22
59 18 5 -1 7 11 6 26 -2 16 1 34 5 42 6 8 5 12 0 8 -16 -9 -49 17 -50 41 0 12
3 22 8 22 5 0 6 5 2 11 -9 16 -10 119 -1 119 5 0 5 5 2 11 -9 14 -13 69 -5 69
3 0 4 17 2 38 -1 20 -3 43 -2 50 0 6 0 18 0 25 0 6 -1 38 -2 70 -2 31 0 57 3
57 3 0 3 20 -1 45 -4 25 -3 48 2 51 4 3 6 10 2 15 -7 13 -9 138 -1 145 3 3 2
16 -3 29 -5 13 -7 25 -5 27 5 5 7 64 3 111 -2 20 0 37 4 37 4 0 3 12 -2 26 -6
14 -7 30 -4 36 3 5 6 31 5 56 -1 26 -1 55 -1 65 0 31 0 51 -1 99 0 26 2 52 6
58 3 6 -3 9 -17 8 -20 -1 -104 39 -273 132 -27 15 -104 56 -170 90 -127 67
-208 110 -213 115 -2 1 21 15 50 30 29 15 85 44 123 65 39 20 124 65 190 100
66 34 152 80 192 101 48 26 84 39 111 39 38 0 39 0 40 40 2 34 -1 40 -16 38
-13 -2 -17 4 -17 25 1 15 -3 27 -7 27 -5 0 -4 8 1 19 6 10 8 21 4 24 -7 8 -10
97 -3 97 7 0 3 90 -4 97 -3 3 -1 14 4 24 6 10 6 20 1 23 -5 3 -6 21 -2 39 5
18 5 41 1 52 -4 11 -4 27 0 35 4 8 4 24 0 35 -4 11 -4 31 0 45 4 14 4 34 0 45
-4 11 -4 27 0 35 4 8 4 24 0 34 -3 11 -4 37 0 57 4 21 4 43 -1 50 -4 7 -4 20
1 30 5 9 7 19 3 22 -7 8 -10 97 -3 97 7 0 3 90 -4 97 -3 3 -1 13 4 23 5 10 7
20 3 23 -7 8 -10 97 -3 97 7 0 3 90 -3 97 -3 3 -2 16 3 29 6 16 6 24 -1 24 -6
0 -7 5 -4 10 3 6 3 10 -2 10 -11 0 -194 -93 -223 -113 -14 -9 -32 -17 -41 -17
-10 0 -19 -3 -21 -7 -1 -5 -106 -60 -233 -124 -381 -192 -709 -361 -722 -372
-7 -5 -13 -6 -13 -2 0 4 -6 3 -12 -3 -12 -9 -89 -51 -268 -144 -41 -22 -106
-56 -145 -76 -38 -21 -108 -57 -155 -82 -47 -24 -87 -47 -90 -51 -3 -3 -16
-10 -30 -14 -14 -4 -28 -12 -31 -17 -4 -6 -46 11 -95 37 -87 47 -160 86 -306
164 -40 21 -116 61 -168 89 -52 27 -131 69 -175 92 -44 24 -118 63 -165 88
-47 24 -90 48 -96 53 -6 5 -14 6 -17 2 -4 -3 -7 -1 -7 5 0 7 -4 12 -10 12 -5
0 -32 13 -60 30 -27 16 -50 27 -50 24 0 -4 -6 -2 -12 4 -7 5 -38 23 -68 39
-63 34 -283 150 -350 185 -25 13 -47 25 -50 28 -3 3 -57 32 -120 64 -63 33
-131 69 -151 82 -20 12 -42 23 -50 24 -26 4 -40 0 -34 -10 3 -5 -29 -27 -72
-48 -174 -88 -228 -117 -235 -127 -4 -5 -8 -6 -8 -1 0 5 -6 4 -12 -1 -12 -10
-75 -43 -428 -225 -80 -42 -208 -108 -285 -148 -77 -40 -146 -77 -152 -82 -7
-6 -13 -7 -13 -3 0 4 -6 3 -12 -2 -16 -13 -116 -66 -333 -178 -93 -48 -221
-114 -283 -147 -75 -39 -117 -56 -125 -50 -7 5 -52 31 -102 57 -128 69 -128
69 -147 84 -10 8 -18 11 -18 8 0 -4 -22 7 -49 23 -26 17 -53 30 -60 30 -6 0
-11 5 -11 10 0 6 -5 10 -11 10 -11 0 -252 131 -247 134 2 2 53 29 113 61 137
72 241 128 325 173 36 20 86 47 112 60 27 13 50 28 54 33 3 5 14 9 25 9 10 0
19 4 19 9 0 5 12 14 28 20 15 5 65 31 112 56 47 26 130 70 185 100 55 29 125
66 155 82 122 66 208 113 275 148 39 20 97 51 130 69 33 18 114 61 180 96 66
35 129 68 140 74 11 6 23 16 27 21 4 6 8 6 8 1 0 -5 6 -4 13 2 11 9 111 63
252 136 33 17 62 33 65 36 3 3 37 21 75 40 39 19 72 37 75 40 5 5 48 28 175
93 33 17 62 34 65 38 6 8 33 -4 160 -73 47 -25 112 -60 144 -77 33 -17 65 -36
73 -42 7 -6 13 -8 13 -5 0 4 12 -1 28 -12 15 -10 54 -33 87 -49 33 -17 89 -47
125 -67 36 -20 90 -48 120 -63 30 -16 57 -31 58 -35 2 -5 9 -8 16 -8 7 0 30
-11 50 -25 20 -13 36 -22 36 -18 0 3 6 1 13 -4 12 -10 145 -83 202 -112 17 -8
90 -48 164 -88 73 -40 135 -73 137 -73 3 0 39 -20 82 -43 42 -24 129 -71 192
-104 63 -34 149 -80 190 -102 41 -23 98 -53 125 -67 28 -14 73 -37 100 -52 28
-15 100 -54 160 -86 61 -33 126 -68 145 -79 19 -11 65 -35 102 -54 37 -19 70
-38 73 -43 5 -8 69 23 395 193 172 89 462 239 610 314 293 150 360 186 360
193 0 5 -19 18 -42 30 -86 44 -383 202 -438 232 -25 14 -103 56 -175 93 -71
37 -157 83 -190 101 -33 17 -94 50 -135 71 -115 60 -267 141 -350 185 -122 66
-210 113 -305 163 -148 78 -256 135 -330 175 -38 20 -119 63 -180 95 -60 32
-137 72 -170 90 -33 18 -100 54 -150 80 -164 87 -200 107 -212 117 -7 6 -13 7
-13 3 0 -4 -6 -3 -12 2 -13 10 -83 48 -248 136 -47 24 -119 63 -160 84 -41 22
-111 59 -154 82 -44 23 -84 45 -90 49 -6 3 -17 7 -25 9 -8 1 -17 6 -20 10 -3
5 -31 22 -61 37 -84 44 -228 120 -295 156 -206 112 -205 112 -205 87z"/>
<path d="M1289 2911 c-19 -10 -70 -37 -114 -61 -44 -24 -105 -57 -135 -73 -30
-16 -82 -43 -115 -62 -33 -18 -85 -46 -115 -62 -30 -16 -80 -43 -110 -60 -30
-17 -95 -52 -145 -78 -49 -26 -96 -52 -102 -57 -7 -6 -13 -7 -13 -2 0 5 -4 5
-8 -1 -4 -5 -16 -15 -27 -21 -11 -6 -65 -35 -120 -64 -55 -30 -127 -69 -160
-88 -33 -18 -72 -39 -87 -45 -16 -6 -28 -16 -28 -22 0 -5 37 -29 83 -53 45
-23 120 -63 167 -88 47 -25 123 -66 170 -91 47 -25 114 -62 150 -81 139 -74
189 -101 295 -157 61 -32 118 -65 129 -74 10 -9 20 -15 22 -13 3 2 33 -13 68
-32 36 -20 69 -36 74 -36 6 0 12 -3 14 -7 2 -5 19 -16 38 -25 19 -10 82 -43
140 -74 58 -31 134 -72 169 -90 36 -19 69 -38 75 -44 5 -5 18 -10 28 -10 10 0
18 -4 18 -9 0 -5 17 -16 38 -25 20 -9 62 -30 92 -47 30 -17 96 -52 145 -78
188 -100 252 -134 300 -161 28 -15 86 -47 130 -70 44 -24 100 -54 124 -67 24
-13 91 -49 150 -80 58 -31 154 -82 213 -114 59 -33 111 -59 116 -59 6 0 12 -3
14 -7 3 -8 29 -22 228 -125 52 -28 100 -53 105 -58 6 -4 44 -25 85 -46 41 -21
77 -42 78 -46 2 -4 11 -8 20 -8 10 0 28 -9 42 -20 14 -11 33 -20 42 -20 9 0
18 -4 20 -8 2 -5 62 -40 133 -77 72 -37 140 -75 153 -83 15 -10 26 -12 33 -5
13 13 18 82 8 111 -5 12 -5 22 -1 22 4 0 6 33 4 72 -2 66 -7 455 -12 990 -2
193 -3 198 -25 212 -23 15 -75 44 -210 116 -38 21 -88 48 -110 60 -22 12 -71
39 -110 60 -75 41 -131 71 -295 160 -97 53 -232 126 -312 167 -18 10 -34 21
-36 26 -2 4 -8 7 -14 7 -5 0 -60 28 -121 61 -226 124 -309 170 -382 209 -27
14 -59 32 -70 38 -18 10 -113 61 -288 156 -37 20 -82 45 -100 55 -18 9 -106
57 -197 106 -91 49 -166 93 -168 97 -2 4 -11 8 -21 8 -9 0 -21 4 -26 9 -6 5
-31 20 -56 34 -44 24 -46 24 -80 8z"/>
</g>
</svg>
