<?xml version="1.0" standalone="no"?>
<!DOCTYPE svg PUBLIC "-//W3C//DTD SVG 20010904//EN"
 "http://www.w3.org/TR/2001/REC-SVG-20010904/DTD/svg10.dtd">
<svg version="1.0" xmlns="http://www.w3.org/2000/svg"
 width="1999.000000pt" height="1999.000000pt" viewBox="0 0 1999.000000 1999.000000"
 preserveAspectRatio="xMidYMid meet">
<metadata>
Created by potrace 1.14, written by Peter Selinger 2001-2017
</metadata>
<g transform="translate(0.000000,1999.000000) scale(0.100000,-0.100000)"
fill="#000000" stroke="none">
<path d="M3707 13784 c-1 -1 -60 -4 -132 -8 -133 -6 -204 -11 -265 -21 -19 -3
-53 -8 -75 -11 -22 -3 -65 -9 -95 -15 -30 -5 -68 -12 -85 -14 -16 -3 -37 -8
-45 -11 -8 -3 -33 -8 -55 -11 -22 -3 -58 -11 -80 -18 -35 -11 -81 -24 -110
-30 -5 -2 -44 -13 -85 -26 -41 -12 -79 -23 -85 -25 -5 -1 -66 -23 -135 -49
-305 -117 -543 -241 -810 -423 -105 -72 -242 -173 -260 -192 -3 -3 -57 -51
-121 -107 -277 -244 -523 -540 -721 -865 -146 -241 -278 -531 -365 -798 -36
-110 -89 -311 -99 -376 -3 -20 -10 -49 -16 -63 -5 -14 -9 -27 -8 -29 1 -2 -12
-110 -15 -122 -1 -3 -5 -32 -9 -65 -5 -33 -10 -69 -12 -79 -24 -135 -24 -697
0 -856 2 -14 7 -47 10 -75 3 -27 9 -63 11 -80 6 -31 31 -172 39 -215 2 -14 12
-54 21 -90 8 -36 17 -72 20 -81 17 -74 122 -391 150 -454 7 -16 30 -68 50
-115 21 -47 41 -89 46 -94 5 -6 9 -15 9 -22 0 -16 136 -261 210 -379 97 -154
211 -304 368 -488 61 -71 274 -279 367 -358 183 -156 403 -313 560 -399 33
-18 65 -36 70 -40 22 -17 256 -131 355 -173 186 -79 407 -152 575 -191 39 -9
86 -21 105 -25 19 -5 55 -12 80 -16 25 -4 54 -9 65 -11 50 -10 279 -42 305
-42 8 0 69 -4 135 -8 187 -11 461 -6 590 11 17 2 57 7 90 10 65 6 345 54 355
60 4 2 22 7 41 10 141 24 491 142 694 234 245 112 558 296 725 427 454 356
791 747 1047 1214 37 66 87 163 88 170 1 3 16 37 34 75 133 286 255 690 295
983 3 23 9 61 12 85 3 23 7 53 10 67 26 157 26 665 -1 870 -2 19 -7 55 -10 80
-83 624 -338 1247 -718 1754 -160 212 -412 479 -602 637 -150 124 -367 277
-508 358 -23 13 -55 32 -72 42 -69 42 -338 171 -435 209 -204 82 -505 172
-670 201 -138 25 -224 38 -277 44 -32 4 -68 8 -81 10 -71 11 -465 28 -475 19z"/>
<path d="M19355 11447 c-205 -98 -215 -388 -16 -505 40 -23 57 -27 126 -27 58
0 89 5 114 19 164 88 205 303 87 444 -74 86 -211 117 -311 69z"/>
<path d="M8668 11445 c-2 -2 -86 -5 -188 -8 -102 -3 -192 -6 -200 -7 -13 0
-15 -162 -13 -1402 1 -772 2 -1409 2 -1416 1 -11 77 -13 429 -9 235 2 438 7
452 10 14 3 41 8 60 11 212 32 427 116 570 222 142 106 265 256 341 418 64
137 122 334 135 461 2 22 6 51 9 65 9 45 18 203 19 315 0 353 -81 639 -245
861 -189 256 -446 409 -791 470 -34 6 -574 14 -580 9z m514 -463 c82 -15 192
-56 255 -94 177 -106 299 -316 330 -572 10 -79 10 -396 0 -465 -60 -426 -258
-696 -567 -777 -65 -16 -266 -25 -391 -16 l-57 4 0 959 0 959 22 5 c48 10 67
11 206 9 80 -1 170 -6 202 -12z"/>
<path d="M16549 11378 c-3 -303 1 -2020 4 -2043 8 -44 21 -119 22 -125 1 -3 5
-21 9 -40 15 -63 69 -184 112 -250 127 -193 354 -322 629 -358 112 -15 425 -7
495 13 8 2 26 6 40 9 55 9 189 59 258 97 237 127 379 322 431 590 17 87 18
173 18 1127 l1 1032 -243 0 -242 0 0 -992 c-1 -885 -2 -1001 -17 -1062 -55
-231 -233 -363 -499 -371 -241 -7 -401 81 -487 270 -47 103 -47 111 -48 1145
0 536 -1 983 -1 993 -1 16 -19 17 -241 17 l-240 0 -1 -52z"/>
<path d="M11429 10706 c-2 -2 -24 -6 -49 -9 -95 -12 -234 -65 -328 -124 -235
-149 -398 -383 -463 -664 -18 -77 -22 -127 -23 -274 -1 -207 4 -264 39 -394
94 -349 329 -576 680 -657 61 -14 121 -18 255 -19 253 0 360 16 520 78 101 38
210 107 210 131 0 7 -34 82 -76 167 -42 85 -80 165 -85 178 l-10 24 -27 -24
c-15 -13 -29 -26 -32 -29 -15 -15 -91 -59 -135 -77 -105 -44 -331 -64 -440
-38 -156 36 -259 106 -334 223 -47 74 -88 215 -82 280 1 9 150 12 709 12 l708
0 12 60 c114 551 -188 1040 -703 1140 -78 14 -334 27 -346 16z m312 -426 c82
-27 152 -79 202 -150 37 -54 82 -174 89 -240 l3 -35 -487 -3 -487 -2 20 67
c29 106 82 202 140 261 29 28 61 54 71 58 10 3 18 9 18 13 0 8 108 45 155 54
57 11 214 -2 276 -23z"/>
<path d="M15237 10690 c-213 -45 -397 -183 -453 -343 -22 -63 -26 -86 -31
-182 -9 -173 46 -307 179 -438 80 -79 162 -130 370 -230 232 -112 294 -156
334 -242 38 -80 29 -189 -19 -242 -43 -48 -104 -66 -222 -67 -167 -1 -278 36
-423 137 l-52 37 -15 -36 c-8 -20 -15 -38 -15 -40 0 -2 -12 -29 -26 -61 -30
-65 -41 -91 -79 -182 -32 -77 -37 -70 100 -135 185 -89 272 -106 510 -102 94
2 184 6 200 10 196 45 298 96 400 202 70 72 119 167 143 279 7 34 7 198 -1
240 -11 65 -14 78 -33 125 -39 100 -105 183 -205 257 -72 55 -111 76 -259 140
-330 144 -412 210 -405 328 8 130 97 187 282 180 145 -5 258 -41 351 -112 24
-18 33 -21 37 -11 55 150 125 352 125 359 0 14 -118 66 -215 95 -179 55 -411
68 -578 34z"/>
<path d="M12630 10666 c0 -4 93 -225 110 -261 5 -11 50 -117 100 -235 94 -222
155 -365 186 -435 9 -22 18 -42 19 -45 1 -3 6 -16 12 -30 6 -14 37 -86 68
-160 31 -74 65 -153 75 -175 10 -22 30 -69 45 -105 14 -36 32 -78 40 -95 7
-16 32 -75 55 -130 23 -55 52 -122 64 -150 12 -27 45 -103 72 -167 l49 -118
85 0 86 0 83 193 c46 105 94 215 107 242 12 28 54 124 94 215 39 91 78 179 85
195 8 17 59 136 115 265 56 129 110 253 120 275 27 60 51 115 120 275 34 80
70 163 80 185 84 187 110 249 110 256 0 5 -107 8 -246 7 l-245 -3 -28 -70
c-16 -38 -115 -286 -220 -550 -106 -264 -201 -498 -210 -520 -10 -22 -24 -57
-30 -77 -7 -21 -14 -38 -16 -38 -5 0 -33 76 -245 645 -111 297 -205 549 -210
560 -4 11 -11 28 -14 38 -5 16 -26 17 -261 17 -140 0 -255 -2 -255 -4z"/>
<path d="M18970 10470 l0 -199 128 -3 127 -3 0 -832 0 -833 235 0 235 0 0
1033 0 1032 -363 3 -362 2 0 -200z"/>
</g>
</svg>
